<svg xmlns="http://www.w3.org/2000/svg" version="1.1" xmlns:xlink="http://www.w3.org/1999/xlink" xmlns:svgjs="http://svgjs.com/svgjs" width="1000" height="1000" overflow="visible"><g class="signage-logo" opacity="1"><defs id="SvgjsDefs1002"></defs><g id="SvgjsG1008" transform="scale(3.5800108076758264)" opacity="1"><g id="SvgjsG1009" class="vk6JKRX0F" transform="translate(0, 0) scale(1)" light-content="false" fill="#303030"><path d="M0 0 h 93.78 v 2 h -93.78 Z M0 0 h 2 v 66.04 h -2 Z M93.78 66.04 h -93.78 v -2 h 93.78 Z M93.78 66.04 h -2 v -66.04 h 2 Z" fill-rule="nonzero"></path></g><g id="SvgjsG1010" class="text" transform="translate(47.810001373291016, 54.45000076293945) scale(1)" light-content="false" fill="#303030"><path d="M-36.81 -42.83L-21.52 0L-16.1 0L-0.81 -42.83L-6.52 -42.83L-16.1 -15.47C-17.43 -11.62 -18.33 -8.47 -18.82 -6.01C-19.39 -8.76 -20.29 -11.88 -21.52 -15.35L-31.16 -42.83Z M23.07 -38.7C26.14 -38.7 29.38 -37.92 32.8 -36.36L34.97 -40.93C31.61 -42.61 27.66 -43.45 23.13 -43.45C18.91 -43.45 15.24 -42.55 12.13 -40.75C9.01 -38.96 6.64 -36.4 5.01 -33.08C3.38 -29.76 2.56 -25.89 2.56 -21.47C2.56 -14.44 4.27 -9.01 7.68 -5.17C11.08 -1.33 15.94 0.59 22.25 0.59C24.44 0.59 26.37 0.46 28.05 0.22C29.73 -0.02 31.48 -0.48 33.3 -1.14L33.3 -5.83C29.49 -4.7 26.06 -4.13 23.01 -4.13C18.29 -4.13 14.64 -5.63 12.08 -8.63C9.53 -11.63 8.25 -15.89 8.25 -21.42C8.25 -26.77 9.57 -30.99 12.2 -34.07C14.84 -37.16 18.46 -38.7 23.07 -38.7Z"></path></g><g id="SvgjsG1011" class="text" transform="translate(46.93000030517578, 82.80000022888184) scale(1)" light-content="false" fill="#050505"><path d="M-32.45 0L-32.45 -0.92L-33.38 -1.35L-33.38 -6.3L-32.45 -6.73L-32.45 -7.65L-35.93 -7.65L-35.93 -6.73L-35 -6.3L-35 -1.35L-35.93 -0.92L-35.93 0Z M-21.28 0L-21.28 -7.65L-22.74 -7.65L-22.74 -4.03C-22.74 -3.62 -22.71 -2.91 -22.66 -1.92L-22.7 -1.92L-26.02 -7.65L-28.07 -7.65L-28.07 0L-26.62 0L-26.62 -3.6C-26.62 -4.04 -26.65 -4.76 -26.72 -5.79L-26.67 -5.79L-23.34 0Z M-11.76 -2.12C-11.76 -2.62 -11.9 -3.04 -12.16 -3.39C-12.43 -3.73 -12.92 -4.07 -13.63 -4.42C-14.17 -4.67 -14.51 -4.85 -14.66 -4.95C-14.8 -5.05 -14.91 -5.15 -14.98 -5.26C-15.04 -5.37 -15.08 -5.49 -15.08 -5.63C-15.08 -5.86 -14.99 -6.05 -14.83 -6.19C-14.67 -6.34 -14.43 -6.41 -14.12 -6.41C-13.87 -6.41 -13.6 -6.38 -13.34 -6.31C-13.07 -6.24 -12.73 -6.13 -12.32 -5.96L-11.8 -7.22C-12.19 -7.39 -12.57 -7.52 -12.93 -7.62C-13.29 -7.71 -13.67 -7.76 -14.07 -7.76C-14.88 -7.76 -15.51 -7.57 -15.97 -7.18C-16.43 -6.79 -16.66 -6.26 -16.66 -5.58C-16.66 -5.22 -16.59 -4.91 -16.45 -4.64C-16.31 -4.37 -16.13 -4.14 -15.89 -3.93C-15.66 -3.73 -15.31 -3.52 -14.84 -3.3C-14.34 -3.06 -14.01 -2.89 -13.85 -2.78C-13.69 -2.68 -13.56 -2.56 -13.48 -2.45C-13.4 -2.33 -13.35 -2.2 -13.35 -2.05C-13.35 -1.78 -13.45 -1.57 -13.64 -1.44C-13.83 -1.3 -14.1 -1.23 -14.46 -1.23C-14.75 -1.23 -15.08 -1.28 -15.44 -1.38C-15.8 -1.47 -16.23 -1.63 -16.75 -1.86L-16.75 -0.36C-16.12 -0.05 -15.4 0.1 -14.58 0.1C-13.7 0.1 -13.01 -0.09 -12.51 -0.49C-12.01 -0.89 -11.76 -1.43 -11.76 -2.12Z M-4.44 0L-4.44 -0.92L-5.37 -1.35L-5.37 -6.3L-4.44 -6.73L-4.44 -7.65L-7.92 -7.65L-7.92 -6.73L-6.99 -6.3L-6.99 -1.35L-7.92 -0.92L-7.92 0Z M2.85 -4.3L2.85 -2.95L4.3 -2.95L4.3 -1.35C3.95 -1.28 3.61 -1.25 3.27 -1.25C2.62 -1.25 2.12 -1.46 1.78 -1.9C1.44 -2.34 1.27 -2.97 1.27 -3.8C1.27 -4.6 1.48 -5.23 1.91 -5.7C2.33 -6.17 2.89 -6.41 3.59 -6.41C4.2 -6.41 4.78 -6.27 5.33 -5.99L5.87 -7.29C5.14 -7.6 4.39 -7.76 3.6 -7.76C2.35 -7.76 1.37 -7.41 0.66 -6.72C-0.04 -6.03 -0.4 -5.07 -0.4 -3.83C-0.4 -2.57 -0.09 -1.59 0.52 -0.91C1.13 -0.23 2.01 0.1 3.16 0.1C3.62 0.1 4.06 0.07 4.49 0.01C4.93 -0.06 5.39 -0.17 5.88 -0.33L5.88 -4.3Z M17.05 0L17.05 -7.65L15.43 -7.65L15.43 -4.65L12.4 -4.65L12.4 -7.65L10.78 -7.65L10.78 0L12.4 0L12.4 -3.3L15.43 -3.3L15.43 0Z M25.01 0L25.01 -6.3L27.08 -6.3L27.08 -7.65L21.31 -7.65L21.31 -6.3L23.38 -6.3L23.38 0Z M35.85 -2.12C35.85 -2.62 35.72 -3.04 35.45 -3.39C35.19 -3.73 34.7 -4.07 33.98 -4.42C33.44 -4.67 33.1 -4.85 32.96 -4.95C32.81 -5.05 32.71 -5.15 32.64 -5.26C32.57 -5.37 32.54 -5.49 32.54 -5.63C32.54 -5.86 32.62 -6.05 32.79 -6.19C32.95 -6.34 33.18 -6.41 33.49 -6.41C33.75 -6.41 34.01 -6.38 34.28 -6.31C34.55 -6.24 34.88 -6.13 35.29 -5.96L35.81 -7.22C35.42 -7.39 35.04 -7.52 34.68 -7.62C34.32 -7.71 33.94 -7.76 33.54 -7.76C32.73 -7.76 32.1 -7.57 31.64 -7.18C31.18 -6.79 30.95 -6.26 30.95 -5.58C30.95 -5.22 31.02 -4.91 31.16 -4.64C31.3 -4.37 31.49 -4.14 31.72 -3.93C31.96 -3.73 32.31 -3.52 32.78 -3.3C33.27 -3.06 33.6 -2.89 33.77 -2.78C33.93 -2.68 34.05 -2.56 34.14 -2.45C34.22 -2.33 34.26 -2.2 34.26 -2.05C34.26 -1.78 34.17 -1.57 33.98 -1.44C33.79 -1.3 33.51 -1.23 33.16 -1.23C32.86 -1.23 32.53 -1.28 32.18 -1.38C31.82 -1.47 31.38 -1.63 30.87 -1.86L30.87 -0.36C31.49 -0.05 32.22 0.1 33.03 0.1C33.92 0.1 34.61 -0.09 35.11 -0.49C35.6 -0.89 35.85 -1.43 35.85 -2.12Z"></path></g></g></g></svg>